<svg width="343" height="82" viewBox="0 0 343 82" fill="none" xmlns="http://www.w3.org/2000/svg">
<g clip-path="url(#clip0_120_2214)">
<path d="M24.5355 53.238C24.5355 53.238 21.8437 69.6803 21.8168 73.8001C21.8168 73.9105 21.9053 73.999 22.0157 73.999H30.8837C31.0528 73.999 31.1373 73.7951 31.018 73.6758L28.5141 71.1719C28.4186 71.0765 28.3689 70.9462 28.3759 70.8119C28.4624 69.1434 29.0083 58.037 28.3381 55.4784C27.6132 52.71 24.5365 53.237 24.5365 53.237L24.5355 53.238Z" fill="#FF78D9"/>
<path style="mix-blend-mode:color-burn" opacity="0.4" d="M26.1087 74H22.0157C21.9053 74 21.8158 73.9115 21.8168 73.8011C21.8347 71.0685 23.024 62.9164 23.8245 57.7356C24.0423 61.9111 23.6704 69.4606 23.6008 70.8129C23.5938 70.9472 23.6445 71.0774 23.74 71.1729L26.2429 73.6768C26.3622 73.7961 26.2777 74 26.1087 74Z" fill="url(#paint0_linear_120_2214)"/>
<path d="M17.4604 53.238C17.4604 53.238 14.7686 69.6803 14.7417 73.8001C14.7417 73.9105 14.8302 73.999 14.9406 73.999H23.8086C23.9777 73.999 24.0622 73.7951 23.9429 73.6758L21.439 71.1719C21.3435 71.0765 21.2938 70.9462 21.3007 70.8119C21.3873 69.1434 21.9332 58.037 21.263 55.4784C20.538 52.71 17.4614 53.237 17.4614 53.237L17.4604 53.238Z" fill="#FF78D9"/>
<path style="mix-blend-mode:color-burn" opacity="0.4" d="M16.8518 74H14.9406C14.8302 74 14.7407 73.9115 14.7417 73.8011C14.7686 69.6803 17.4604 53.239 17.4604 53.239C17.4604 53.239 18.3891 53.0799 19.3458 53.3951C19.0713 55.0806 16.6778 69.916 16.6519 73.8011C16.6519 73.9115 16.7414 74 16.8518 74Z" fill="url(#paint1_linear_120_2214)"/>
<path d="M22.7436 57.4821C30.3318 57.4821 36.4832 51.3307 36.4832 43.7425C36.4832 36.1544 30.3318 30.003 22.7436 30.003C15.1555 30.003 9.00404 36.1544 9.00404 43.7425C9.00404 51.3307 15.1555 57.4821 22.7436 57.4821Z" fill="#FF78D9"/>
<path style="mix-blend-mode:color-burn" opacity="0.4" d="M35.6669 48.4054C33.0914 55.5432 25.2178 59.2413 18.081 56.6658C10.9432 54.0914 7.24408 46.2187 9.81957 39.081C12.3941 31.9432 20.2687 28.244 27.4064 30.8195C27.5725 30.8792 27.7376 30.9418 27.8997 31.0085C21.4331 28.959 14.4475 32.3718 12.1246 38.8085C9.74399 45.4063 13.1637 52.6853 19.7625 55.0659C26.2002 57.3888 33.2853 54.1908 35.8369 47.9052C35.7842 48.0723 35.7275 48.2383 35.6669 48.4054Z" fill="url(#paint2_radial_120_2214)"/>
<path style="mix-blend-mode:color-burn" opacity="0.2" d="M28.0974 43.9374C26.7311 44.549 24.6379 48.8666 24.622 49.4135C24.6061 49.9605 20.5519 49.7357 20.5519 49.7357L19.2294 45.1764L24.0602 44.5808L26.4398 43.647L28.0964 43.9374H28.0974Z" fill="url(#paint3_linear_120_2214)"/>
<path d="M21.4976 42.7601C23.8042 42.7601 25.6741 40.8902 25.6741 38.5836C25.6741 36.277 23.8042 34.4071 21.4976 34.4071C19.191 34.4071 17.3212 36.277 17.3212 38.5836C17.3212 40.8902 19.191 42.7601 21.4976 42.7601Z" fill="white"/>
<path d="M29.4857 42.7601C31.7923 42.7601 33.6622 40.8902 33.6622 38.5836C33.6622 36.277 31.7923 34.4071 29.4857 34.4071C27.1791 34.4071 25.3092 36.277 25.3092 38.5836C25.3092 40.8902 27.1791 42.7601 29.4857 42.7601Z" fill="white"/>
<path d="M24.0601 44.2964C19.7822 42.9679 15.2329 42.7004 15.7052 44.6743C15.9031 45.5016 17.7656 46.326 20.2407 46.1718C24.3276 45.9163 26.5809 43.9862 28.0964 43.9384C26.9817 43.0117 25.5746 43.4124 24.0601 44.2974V44.2964Z" fill="#FF41CA"/>
<path style="mix-blend-mode:multiply" d="M24.0601 44.2964C24.0601 44.2964 23.2676 44.6604 22.1837 44.7181C21.1088 44.7757 20.5489 44.018 20.5489 44.018L21.9571 43.7422L24.0601 44.2964Z" fill="url(#paint4_linear_120_2214)"/>
<path d="M21.6707 41.6075C23.3407 41.6075 24.6946 40.2537 24.6946 38.5836C24.6946 36.9135 23.3407 35.5596 21.6707 35.5596C20.0006 35.5596 18.6467 36.9135 18.6467 38.5836C18.6467 40.2537 20.0006 41.6075 21.6707 41.6075Z" fill="black"/>
<path d="M29.6785 41.6075C31.3486 41.6075 32.7025 40.2537 32.7025 38.5836C32.7025 36.9135 31.3486 35.5596 29.6785 35.5596C28.0084 35.5596 26.6545 36.9135 26.6545 38.5836C26.6545 40.2537 28.0084 41.6075 29.6785 41.6075Z" fill="black"/>
<path d="M20.55 34.4071C23.9946 31.8217 29.8506 31.6507 33.3528 34.5374" stroke="black" stroke-width="0.994395" stroke-miterlimit="10"/>
<path d="M57.3882 56.4648C57.3882 56.4648 69.2673 68.147 72.6174 70.5455C72.7069 70.6101 72.8312 70.5872 72.8948 70.4977L78.01 63.2536C78.1074 63.1153 77.9891 62.9294 77.823 62.9572L74.3337 63.5578C74.2015 63.5807 74.0652 63.5469 73.9598 63.4634C72.6462 62.4302 63.8886 55.5788 61.4115 54.65C58.7316 53.6457 57.3882 56.4628 57.3882 56.4628V56.4648Z" fill="#FF78D9"/>
<path style="mix-blend-mode:color-burn" opacity="0.4" d="M75.2555 67.1546L72.8948 70.4977C72.8312 70.5882 72.7069 70.6101 72.6174 70.5455C70.3959 68.9544 64.4226 63.2814 60.6518 59.6389C64.1879 61.8694 70.1413 66.5281 71.2053 67.3644C71.3107 67.4479 71.447 67.4807 71.5792 67.4579L75.0686 66.8572C75.2346 66.8284 75.353 67.0154 75.2555 67.1536V67.1546Z" fill="url(#paint5_linear_120_2214)"/>
<path d="M51.3204 51.7206C51.3204 51.7206 54.3861 57.503 50.2942 60.862C47.0525 63.523 43.8028 66.2795 42.5628 67.614C42.4882 67.6945 42.4942 67.8208 42.5747 67.8954L49.1109 73.8886C49.2352 74.003 49.435 73.9095 49.4281 73.7405L49.2749 70.2034C49.269 70.0691 49.3197 69.9389 49.4161 69.8444C49.9651 69.3045 51.9399 67.3544 54.0311 65.1787C56.4783 62.6331 57.5592 58.1374 57.1625 56.7264C56.3859 53.9719 51.3204 51.7196 51.3204 51.7196V51.7206Z" fill="#FF78D9"/>
<path style="mix-blend-mode:color-burn" opacity="0.4" d="M54.0311 65.1777C51.9399 67.3534 49.9651 69.3045 49.4161 69.8434C49.3197 69.9379 49.269 70.0681 49.2749 70.2024L49.4281 73.7395C49.435 73.9085 49.2352 74.002 49.1109 73.8876L42.5747 67.8944C42.4942 67.8198 42.4882 67.6935 42.5628 67.613C42.6851 67.4817 42.8273 67.3356 42.9864 67.1784L48.1314 71.8968C48.2557 72.0112 48.4566 71.9177 48.4486 71.7497L48.2955 68.2126C48.2905 68.0774 48.3412 67.9481 48.4367 67.8536C48.9856 67.3137 50.9614 65.3627 53.0527 63.1879C55.3 60.8491 56.3948 56.8685 56.2516 55.1413C56.6772 55.6395 57.0064 56.1735 57.1625 56.7263C57.5592 58.1364 56.4783 62.6321 54.0311 65.1777Z" fill="url(#paint6_linear_120_2214)"/>
<path d="M57.245 59.8537C64.8332 59.8537 70.9846 53.7023 70.9846 46.1142C70.9846 38.526 64.8332 32.3746 57.245 32.3746C49.6569 32.3746 43.5055 38.526 43.5055 46.1142C43.5055 53.7023 49.6569 59.8537 57.245 59.8537Z" fill="#FF78D9"/>
<path style="mix-blend-mode:color-burn" opacity="0.4" d="M70.172 50.7769C67.5965 57.9146 59.7229 61.6128 52.5862 59.0373C45.4484 56.4618 41.7492 48.5892 44.3247 41.4514C46.9002 34.3137 54.7738 30.6145 61.9116 33.19C62.0776 33.2497 62.2427 33.3123 62.4048 33.3789C55.9383 31.3305 48.9526 34.7423 46.6297 41.18C44.2491 47.7778 47.6689 55.0568 54.2677 57.4373C60.7054 59.7602 67.7905 56.5623 70.3421 50.2767C70.2894 50.4438 70.2327 50.6098 70.172 50.7769Z" fill="url(#paint7_radial_120_2214)"/>
<path style="mix-blend-mode:color-burn" opacity="0.2" d="M62.5978 46.3091C61.2315 46.9206 59.1383 51.2383 59.1224 51.7852C59.1065 52.3321 55.0524 52.1074 55.0524 52.1074L53.7298 47.5481L58.5606 46.9524L60.9402 46.0187L62.5968 46.3091H62.5978Z" fill="url(#paint8_linear_120_2214)"/>
<path d="M55.999 45.1317C58.3056 45.1317 60.1755 43.2618 60.1755 40.9552C60.1755 38.6486 58.3056 36.7788 55.999 36.7788C53.6924 36.7788 51.8226 38.6486 51.8226 40.9552C51.8226 43.2618 53.6924 45.1317 55.999 45.1317Z" fill="white"/>
<path d="M63.9871 45.1317C66.2937 45.1317 68.1636 43.2618 68.1636 40.9552C68.1636 38.6486 66.2937 36.7788 63.9871 36.7788C61.6805 36.7788 59.8107 38.6486 59.8107 40.9552C59.8107 43.2618 61.6805 45.1317 63.9871 45.1317Z" fill="white"/>
<path d="M58.5616 46.668C54.2837 45.3395 49.7343 45.072 50.2067 47.0459C50.4046 47.8733 52.2671 48.6976 54.7421 48.5435C58.8291 48.2879 61.0824 46.3578 62.5978 46.3101C61.4831 45.3833 60.0761 45.784 58.5616 46.669V46.668Z" fill="#FF41CA"/>
<path style="mix-blend-mode:multiply" d="M58.5616 46.668C58.5616 46.668 57.7691 47.032 56.6852 47.0897C55.6102 47.1473 55.0504 46.3896 55.0504 46.3896L56.539 46.1165L58.5616 46.668Z" fill="url(#paint9_linear_120_2214)"/>
<path d="M56.1711 43.9792C57.8412 43.9792 59.195 42.6253 59.195 40.9552C59.195 39.2851 57.8412 37.9313 56.1711 37.9313C54.501 37.9313 53.1471 39.2851 53.1471 40.9552C53.1471 42.6253 54.501 43.9792 56.1711 43.9792Z" fill="black"/>
<path d="M64.179 43.9792C65.849 43.9792 67.2029 42.6253 67.2029 40.9552C67.2029 39.2851 65.849 37.9313 64.179 37.9313C62.5089 37.9313 61.155 39.2851 61.155 40.9552C61.155 42.6253 62.5089 43.9792 64.179 43.9792Z" fill="black"/>
<path d="M54.0948 35.1589C55.5426 37.5574 58.0744 37.802 60.626 36.1066C62.8375 34.6368 65.7352 32.8678 67.2089 37.2262" stroke="black" stroke-width="0.994395" stroke-miterlimit="10"/>
<path d="M132.196 56.4648C132.196 56.4648 144.075 68.147 147.425 70.5455C147.514 70.6101 147.639 70.5872 147.702 70.4977L152.817 63.2536C152.915 63.1153 152.797 62.9294 152.63 62.9572L149.141 63.5578C149.009 63.5807 148.873 63.5469 148.767 63.4634C147.454 62.4302 138.696 55.5788 136.219 54.65C133.539 53.6457 132.196 56.4628 132.196 56.4628V56.4648Z" fill="#FF78D9"/>
<path style="mix-blend-mode:color-burn" opacity="0.4" d="M150.063 67.1546L147.702 70.4977C147.639 70.5882 147.514 70.6101 147.425 70.5455C145.203 68.9544 139.23 63.2814 135.459 59.6389C138.995 61.8694 144.949 66.5281 146.013 67.3644C146.118 67.4479 146.254 67.4807 146.387 67.4579L149.876 66.8572C150.042 66.8284 150.16 67.0154 150.063 67.1536V67.1546Z" fill="url(#paint10_linear_120_2214)"/>
<path d="M126.127 51.7206C126.127 51.7206 129.193 57.503 125.101 60.862C121.859 63.523 118.609 66.2795 117.369 67.614C117.295 67.6945 117.301 67.8208 117.381 67.8954L123.917 73.8886C124.042 74.003 124.241 73.9095 124.234 73.7405L124.081 70.2034C124.075 70.0691 124.126 69.9389 124.223 69.8444C124.771 69.3045 126.746 67.3544 128.838 65.1787C131.285 62.6331 132.366 58.1374 131.969 56.7264C131.192 53.9719 126.127 51.7196 126.127 51.7196V51.7206Z" fill="#FF78D9"/>
<path style="mix-blend-mode:color-burn" opacity="0.4" d="M128.838 65.1777C126.746 67.3534 124.771 69.3045 124.223 69.8434C124.126 69.9379 124.075 70.0681 124.081 70.2024L124.234 73.7395C124.241 73.9085 124.042 74.002 123.917 73.8876L117.381 67.8944C117.301 67.8198 117.295 67.6935 117.369 67.613C117.491 67.4817 117.634 67.3356 117.793 67.1784L122.938 71.8968C123.062 72.0112 123.263 71.9177 123.255 71.7497L123.102 68.2126C123.097 68.0774 123.148 67.9481 123.243 67.8536C123.792 67.3137 125.768 65.3627 127.859 63.1879C130.106 60.8491 131.201 56.8685 131.058 55.1413C131.484 55.6395 131.813 56.1735 131.969 56.7263C132.366 58.1364 131.285 62.6321 128.838 65.1777Z" fill="url(#paint11_linear_120_2214)"/>
<path d="M132.05 59.8537C139.639 59.8537 145.79 53.7023 145.79 46.1142C145.79 38.526 139.639 32.3746 132.05 32.3746C124.462 32.3746 118.311 38.526 118.311 46.1142C118.311 53.7023 124.462 59.8537 132.05 59.8537Z" fill="#FF78D9"/>
<path style="mix-blend-mode:color-burn" opacity="0.4" d="M144.974 50.7769C142.398 57.9146 134.524 61.6128 127.388 59.0373C120.25 56.4618 116.551 48.5892 119.126 41.4514C121.702 34.3137 129.575 30.6145 136.713 33.19C136.879 33.2497 137.044 33.3123 137.206 33.3789C130.74 31.3305 123.754 34.7423 121.431 41.18C119.051 47.7778 122.47 55.0568 129.069 57.4373C135.507 59.7602 142.592 56.5623 145.144 50.2767C145.091 50.4438 145.034 50.6098 144.974 50.7769Z" fill="url(#paint12_radial_120_2214)"/>
<path style="mix-blend-mode:color-burn" opacity="0.2" d="M137.404 46.3091C136.038 46.9206 133.945 51.2383 133.929 51.7852C133.913 52.3321 129.859 52.1074 129.859 52.1074L128.536 47.5481L133.367 46.9524L135.747 46.0187L137.403 46.3091H137.404Z" fill="url(#paint13_linear_120_2214)"/>
<path d="M130.805 45.1317C133.112 45.1317 134.982 43.2618 134.982 40.9552C134.982 38.6486 133.112 36.7788 130.805 36.7788C128.499 36.7788 126.629 38.6486 126.629 40.9552C126.629 43.2618 128.499 45.1317 130.805 45.1317Z" fill="white"/>
<path d="M138.794 45.1317C141.1 45.1317 142.97 43.2618 142.97 40.9552C142.97 38.6486 141.1 36.7788 138.794 36.7788C136.487 36.7788 134.617 38.6486 134.617 40.9552C134.617 43.2618 136.487 45.1317 138.794 45.1317Z" fill="white"/>
<path d="M133.368 46.668C129.09 45.3395 124.541 45.072 125.013 47.0459C125.211 47.8733 127.073 48.6976 129.549 48.5435C133.635 48.2879 135.889 46.3578 137.404 46.3101C136.29 45.3833 134.882 45.784 133.368 46.669V46.668Z" fill="#FF41CA"/>
<path style="mix-blend-mode:multiply" d="M133.368 46.668C133.368 46.668 132.575 47.032 131.492 47.0897C130.417 47.1473 129.857 46.3896 129.857 46.3896L131.146 46.0876L133.368 46.668Z" fill="url(#paint14_linear_120_2214)"/>
<path d="M130.978 43.9792C132.649 43.9792 134.002 42.6253 134.002 40.9552C134.002 39.2851 132.649 37.9313 130.978 37.9313C129.308 37.9313 127.955 39.2851 127.955 40.9552C127.955 42.6253 129.308 43.9792 130.978 43.9792Z" fill="black"/>
<path d="M138.985 43.9792C140.655 43.9792 142.009 42.6253 142.009 40.9552C142.009 39.2851 140.655 37.9313 138.985 37.9313C137.315 37.9313 135.961 39.2851 135.961 40.9552C135.961 42.6253 137.315 43.9792 138.985 43.9792Z" fill="black"/>
<path d="M128.902 35.1589C130.35 37.5574 132.882 37.802 135.433 36.1066C137.645 34.6368 140.543 32.8678 142.016 37.2262" stroke="black" stroke-width="0.994395" stroke-miterlimit="10"/>
<path d="M93.9641 64.4468C101.552 64.4468 107.704 58.2954 107.704 50.7073C107.704 43.1191 101.552 36.9677 93.9641 36.9677C86.376 36.9677 80.2245 43.1191 80.2245 50.7073C80.2245 58.2954 86.376 64.4468 93.9641 64.4468Z" fill="#FF78D9"/>
<path style="mix-blend-mode:color-burn" opacity="0.4" d="M106.865 55.3511C104.29 62.4889 96.4162 66.187 89.2794 63.6116C82.1417 61.0361 78.4425 53.1634 81.018 46.0257C83.5935 38.8879 91.4671 35.1888 98.6048 37.7642C98.7709 37.8239 98.936 37.8865 99.0981 37.9532C92.6315 35.9047 85.6459 39.3165 83.323 45.7542C80.9424 52.352 84.3621 59.631 90.9609 62.0116C97.3986 64.3345 104.484 61.1365 107.035 54.8509C106.983 55.018 106.926 55.1841 106.865 55.3511Z" fill="url(#paint15_radial_120_2214)"/>
<path style="mix-blend-mode:color-burn" opacity="0.2" d="M99.3179 50.9022C97.9516 51.5137 95.8584 55.8314 95.8425 56.3783C95.8266 56.9252 91.7725 56.7005 91.7725 56.7005L90.4499 52.1412L95.2807 51.5456L97.6603 50.6118L99.3169 50.9022H99.3179Z" fill="url(#paint16_linear_120_2214)"/>
<path d="M95.2817 51.2611C91.0039 49.9326 86.4545 49.6651 86.9268 51.639C87.1247 52.4663 88.9872 53.2907 91.4623 53.1366C95.5492 52.881 97.8025 50.9509 99.318 50.9032C98.2033 49.9764 96.7962 50.3771 95.2817 51.2621V51.2611Z" fill="#FF41CA"/>
<path style="mix-blend-mode:multiply" d="M95.2817 51.2611C95.2817 51.2611 94.4892 51.6251 93.4053 51.6828C92.3304 51.7404 91.7705 50.9827 91.7705 50.9827L93.1645 50.7026L95.2817 51.2611Z" fill="url(#paint17_linear_120_2214)"/>
<path style="mix-blend-mode:color-burn" opacity="0.4" d="M87.7183 62.9463C89.1552 62.6659 92.6446 60.4275 93.1865 57.6919C93.7285 54.9563 92.8912 63.715 92.8912 63.715L92.7182 64.3911C92.7182 64.3911 91.5478 64.5353 89.0657 63.5439C87.7134 63.004 87.7173 62.9463 87.7173 62.9463H87.7183Z" fill="url(#paint18_radial_120_2214)"/>
<path d="M101 56.787C101 56.787 98.3086 69.6803 98.2818 73.8011C98.2818 73.9115 98.3703 74 98.4806 74H107.349C107.518 74 107.602 73.7961 107.483 73.6768L104.979 71.1729C104.884 71.0775 104.834 70.9472 104.841 70.813C104.927 69.1444 105.906 61.586 105.237 59.0284C104.512 56.26 101.001 56.787 101.001 56.787H101Z" fill="#FF78D9"/>
<path style="mix-blend-mode:color-burn" opacity="0.4" d="M100.128 74H98.4807C98.3703 74 98.2808 73.9115 98.2818 73.8011C98.3086 69.6803 101 56.787 101 56.787C101 56.787 101.756 56.6736 102.639 56.8288C102.473 57.6312 99.9553 69.8166 99.9295 73.8011C99.9285 73.9115 100.018 74 100.128 74Z" fill="url(#paint19_linear_120_2214)"/>
<path d="M93.3724 56.787C93.3724 56.787 90.6806 69.6803 90.6537 73.8011C90.6537 73.9115 90.7422 74 90.8526 74H99.7206C99.8897 74 99.9742 73.7961 99.8549 73.6768L97.351 71.1729C97.2555 71.0775 97.2058 70.9472 97.2128 70.813C97.2993 69.1444 98.2778 61.586 97.6085 59.0284C96.8836 56.26 93.3734 56.787 93.3734 56.787H93.3724Z" fill="#FF78D9"/>
<path style="mix-blend-mode:color-burn" opacity="0.4" d="M92.5003 74H90.8526C90.7423 74 90.6528 73.9115 90.6538 73.8011C90.6806 69.6803 93.3724 56.787 93.3724 56.787C93.3724 56.787 94.1282 56.6736 95.0112 56.8288C94.8451 57.6312 92.3273 69.8166 92.3015 73.8011C92.3005 73.9115 92.39 74 92.5003 74Z" fill="url(#paint20_linear_120_2214)"/>
<path d="M92.7659 42.0998L92.0956 41.5887C92.2388 41.5718 92.385 41.5628 92.5332 41.5618C93.5127 42.2877 94.5389 42.6686 95.5432 42.8157C95.6148 42.8883 95.6844 42.9639 95.749 43.0425L94.7686 43.0057L92.7659 42.0998Z" fill="white"/>
<path d="M98.424 42.9569L97.4097 43.0206C97.4694 42.951 97.531 42.8834 97.5956 42.8177C98.9719 42.6318 100.202 42.1087 101.071 41.5916C101.19 41.6056 101.309 41.6255 101.425 41.6493L101.191 41.7517L98.424 42.9569Z" fill="white"/>
<path d="M104.741 45.7283C104.741 48.0294 102.876 49.8948 100.575 49.8948C98.6736 49.8948 97.0706 48.621 96.5704 46.8808C96.0703 48.621 94.4683 49.8948 92.567 49.8948C90.266 49.8948 88.4005 48.0294 88.4005 45.7283C88.4005 43.4273 90.2481 41.5797 92.5332 41.5618C93.5127 42.2877 94.5389 42.6686 95.5432 42.8157C96.0205 43.302 96.3775 43.9046 96.5704 44.5768C96.7633 43.9056 97.1193 43.304 97.5957 42.8177C98.9719 42.6318 100.202 42.1087 101.071 41.5916C103.138 41.8363 104.741 43.5954 104.741 45.7283Z" fill="white"/>
<path d="M92.7659 48.6528C94.436 48.6528 95.7898 47.299 95.7898 45.6289C95.7898 43.9588 94.436 42.6049 92.7659 42.6049C91.0958 42.6049 89.7419 43.9588 89.7419 45.6289C89.7419 47.299 91.0958 48.6528 92.7659 48.6528Z" fill="black"/>
<path d="M100.774 48.6528C102.444 48.6528 103.798 47.299 103.798 45.6289C103.798 43.9588 102.444 42.6049 100.774 42.6049C99.1037 42.6049 97.7498 43.9588 97.7498 45.6289C97.7498 47.299 99.1037 48.6528 100.774 48.6528Z" fill="black"/>
<path d="M103.649 40.1428C103.49 40.3825 103.299 40.6281 103.077 40.8707C101.826 42.245 99.6093 43.5695 96.998 43.7266C96.8399 43.7356 96.6748 43.7415 96.5058 43.7415C94.7914 43.7415 92.5163 43.2006 90.4519 40.9592C90.3465 40.8449 90.2421 40.7265 90.1377 40.6032L90.9739 39.8982C93.0284 42.3315 95.3473 42.7292 96.9324 42.6348C99.5098 42.4796 101.802 40.9612 102.734 39.5422L103.649 40.1428Z" fill="black"/>
<path style="mix-blend-mode:multiply" d="M103.019 42.3543C102.533 42.768 101.886 43.2225 101.026 43.7077C97.2585 45.8367 92.391 43.8658 90.5722 42.0699C91.155 41.7507 91.8232 41.5678 92.5332 41.5618C93.5127 42.2877 94.5389 42.6686 95.5432 42.8157C96.0205 43.302 96.3775 43.9046 96.5704 44.5768C96.7633 43.9056 97.1193 43.304 97.5956 42.8177C98.9719 42.6318 100.202 42.1087 101.071 41.5916C101.794 41.6772 102.459 41.9476 103.019 42.3543Z" fill="url(#paint21_radial_120_2214)"/>
</g>
<g clip-path="url(#clip1_120_2214)">
<path d="M173.535 53.238C173.535 53.238 170.844 69.6803 170.817 73.8001C170.817 73.9105 170.905 73.999 171.016 73.999H179.884C180.053 73.999 180.137 73.7951 180.018 73.6758L177.514 71.1719C177.419 71.0765 177.369 70.9462 177.376 70.8119C177.462 69.1434 178.008 58.037 177.338 55.4784C176.613 52.71 173.536 53.237 173.536 53.237L173.535 53.238Z" fill="#FF78D9"/>
<path style="mix-blend-mode:color-burn" opacity="0.4" d="M175.109 74H171.016C170.905 74 170.816 73.9115 170.817 73.8011C170.835 71.0685 172.024 62.9164 172.824 57.7356C173.042 61.9111 172.67 69.4606 172.601 70.8129C172.594 70.9472 172.645 71.0774 172.74 71.1729L175.243 73.6768C175.362 73.7961 175.278 74 175.109 74Z" fill="url(#paint22_linear_120_2214)"/>
<path d="M166.46 53.238C166.46 53.238 163.769 69.6803 163.742 73.8001C163.742 73.9105 163.83 73.999 163.941 73.999H172.809C172.978 73.999 173.062 73.7951 172.943 73.6758L170.439 71.1719C170.343 71.0765 170.294 70.9462 170.301 70.8119C170.387 69.1434 170.933 58.037 170.263 55.4784C169.538 52.71 166.461 53.237 166.461 53.237L166.46 53.238Z" fill="#FF78D9"/>
<path style="mix-blend-mode:color-burn" opacity="0.4" d="M165.852 74H163.941C163.83 74 163.741 73.9115 163.742 73.8011C163.769 69.6803 166.46 53.239 166.46 53.239C166.46 53.239 167.389 53.0799 168.346 53.3951C168.071 55.0806 165.678 69.916 165.652 73.8011C165.652 73.9115 165.741 74 165.852 74Z" fill="url(#paint23_linear_120_2214)"/>
<path d="M171.744 57.4821C179.332 57.4821 185.483 51.3307 185.483 43.7425C185.483 36.1544 179.332 30.003 171.744 30.003C164.155 30.003 158.004 36.1544 158.004 43.7425C158.004 51.3307 164.155 57.4821 171.744 57.4821Z" fill="#FF78D9"/>
<path style="mix-blend-mode:color-burn" opacity="0.4" d="M184.667 48.4054C182.091 55.5432 174.218 59.2413 167.081 56.6658C159.943 54.0914 156.244 46.2187 158.82 39.081C161.394 31.9432 169.269 28.244 176.406 30.8195C176.572 30.8792 176.738 30.9418 176.9 31.0085C170.433 28.959 163.447 32.3718 161.125 38.8085C158.744 45.4063 162.164 52.6853 168.763 55.0659C175.2 57.3888 182.285 54.1908 184.837 47.9052C184.784 48.0723 184.728 48.2383 184.667 48.4054Z" fill="url(#paint24_radial_120_2214)"/>
<path style="mix-blend-mode:color-burn" opacity="0.2" d="M177.097 43.9374C175.731 44.549 173.638 48.8666 173.622 49.4135C173.606 49.9605 169.552 49.7357 169.552 49.7357L168.229 45.1764L173.06 44.5808L175.44 43.647L177.096 43.9374H177.097Z" fill="url(#paint25_linear_120_2214)"/>
<path d="M170.498 42.7601C172.804 42.7601 174.674 40.8902 174.674 38.5836C174.674 36.277 172.804 34.4071 170.498 34.4071C168.191 34.4071 166.321 36.277 166.321 38.5836C166.321 40.8902 168.191 42.7601 170.498 42.7601Z" fill="white"/>
<path d="M178.486 42.7601C180.792 42.7601 182.662 40.8902 182.662 38.5836C182.662 36.277 180.792 34.4071 178.486 34.4071C176.179 34.4071 174.309 36.277 174.309 38.5836C174.309 40.8902 176.179 42.7601 178.486 42.7601Z" fill="white"/>
<path d="M173.06 44.2964C168.782 42.9679 164.233 42.7004 164.705 44.6743C164.903 45.5016 166.766 46.326 169.241 46.1718C173.328 45.9163 175.581 43.9862 177.096 43.9384C175.982 43.0117 174.575 43.4124 173.06 44.2974V44.2964Z" fill="#FF41CA"/>
<path style="mix-blend-mode:multiply" d="M173.06 44.2964C173.06 44.2964 172.268 44.6604 171.184 44.7181C170.109 44.7757 169.549 44.018 169.549 44.018L170.802 43.7763L173.06 44.2964Z" fill="url(#paint26_linear_120_2214)"/>
<path d="M170.671 41.6075C172.341 41.6075 173.695 40.2537 173.695 38.5836C173.695 36.9135 172.341 35.5596 170.671 35.5596C169.001 35.5596 167.647 36.9135 167.647 38.5836C167.647 40.2537 169.001 41.6075 170.671 41.6075Z" fill="black"/>
<path d="M178.678 41.6075C180.349 41.6075 181.702 40.2537 181.702 38.5836C181.702 36.9135 180.349 35.5596 178.678 35.5596C177.008 35.5596 175.655 36.9135 175.655 38.5836C175.655 40.2537 177.008 41.6075 178.678 41.6075Z" fill="black"/>
<path d="M169.55 34.4071C172.995 31.8217 178.851 31.6507 182.353 34.5374" stroke="black" stroke-width="0.994395" stroke-miterlimit="10"/>
<path d="M206.388 56.4648C206.388 56.4648 218.267 68.147 221.617 70.5455C221.707 70.6101 221.831 70.5872 221.895 70.4977L227.01 63.2536C227.107 63.1153 226.989 62.9294 226.823 62.9572L223.334 63.5578C223.201 63.5807 223.065 63.5469 222.96 63.4634C221.646 62.4302 212.889 55.5788 210.412 54.65C207.732 53.6457 206.388 56.4628 206.388 56.4628V56.4648Z" fill="#FF78D9"/>
<path style="mix-blend-mode:color-burn" opacity="0.4" d="M224.256 67.1546L221.895 70.4977C221.831 70.5882 221.707 70.6101 221.617 70.5455C219.396 68.9544 213.423 63.2814 209.652 59.6389C213.188 61.8694 219.141 66.5281 220.205 67.3644C220.311 67.4479 220.447 67.4807 220.579 67.4579L224.069 66.8572C224.235 66.8284 224.353 67.0154 224.256 67.1536V67.1546Z" fill="url(#paint27_linear_120_2214)"/>
<path d="M200.32 51.7206C200.32 51.7206 203.386 57.503 199.294 60.862C196.052 63.523 192.803 66.2795 191.563 67.614C191.488 67.6945 191.494 67.8208 191.575 67.8954L198.111 73.8886C198.235 74.003 198.435 73.9095 198.428 73.7405L198.275 70.2034C198.269 70.0691 198.32 69.9389 198.416 69.8444C198.965 69.3045 200.94 67.3544 203.031 65.1787C205.478 62.6331 206.559 58.1374 206.162 56.7264C205.386 53.9719 200.32 51.7196 200.32 51.7196V51.7206Z" fill="#FF78D9"/>
<path style="mix-blend-mode:color-burn" opacity="0.4" d="M203.031 65.1777C200.94 67.3534 198.965 69.3045 198.416 69.8434C198.32 69.9379 198.269 70.0681 198.275 70.2024L198.428 73.7395C198.435 73.9085 198.235 74.002 198.111 73.8876L191.575 67.8944C191.494 67.8198 191.488 67.6935 191.563 67.613C191.685 67.4817 191.827 67.3356 191.986 67.1784L197.131 71.8968C197.256 72.0112 197.457 71.9177 197.449 71.7497L197.295 68.2126C197.29 68.0774 197.341 67.9481 197.437 67.8536C197.986 67.3137 199.961 65.3627 202.053 63.1879C204.3 60.8491 205.395 56.8685 205.252 55.1413C205.677 55.6395 206.006 56.1735 206.162 56.7263C206.559 58.1364 205.478 62.6321 203.031 65.1777Z" fill="url(#paint28_linear_120_2214)"/>
<path d="M206.245 59.8537C213.833 59.8537 219.985 53.7023 219.985 46.1142C219.985 38.526 213.833 32.3746 206.245 32.3746C198.657 32.3746 192.505 38.526 192.505 46.1142C192.505 53.7023 198.657 59.8537 206.245 59.8537Z" fill="#FF78D9"/>
<path style="mix-blend-mode:color-burn" opacity="0.4" d="M219.172 50.7769C216.597 57.9146 208.723 61.6128 201.586 59.0373C194.448 56.4618 190.749 48.5892 193.325 41.4514C195.9 34.3137 203.774 30.6145 210.912 33.19C211.078 33.2497 211.243 33.3123 211.405 33.3789C204.938 31.3305 197.953 34.7423 195.63 41.18C193.249 47.7778 196.669 55.0568 203.268 57.4373C209.705 59.7602 216.79 56.5623 219.342 50.2767C219.289 50.4438 219.233 50.6098 219.172 50.7769Z" fill="url(#paint29_radial_120_2214)"/>
<path style="mix-blend-mode:color-burn" opacity="0.2" d="M211.598 46.3091C210.232 46.9206 208.138 51.2383 208.122 51.7852C208.107 52.3321 204.052 52.1074 204.052 52.1074L202.73 47.5481L207.561 46.9524L209.94 46.0187L211.597 46.3091H211.598Z" fill="url(#paint30_linear_120_2214)"/>
<path d="M204.999 45.1317C207.306 45.1317 209.175 43.2618 209.175 40.9552C209.175 38.6486 207.306 36.7788 204.999 36.7788C202.692 36.7788 200.823 38.6486 200.823 40.9552C200.823 43.2618 202.692 45.1317 204.999 45.1317Z" fill="white"/>
<path d="M212.987 45.1317C215.294 45.1317 217.164 43.2618 217.164 40.9552C217.164 38.6486 215.294 36.7788 212.987 36.7788C210.681 36.7788 208.811 38.6486 208.811 40.9552C208.811 43.2618 210.681 45.1317 212.987 45.1317Z" fill="white"/>
<path d="M207.562 46.668C203.284 45.3395 198.734 45.072 199.207 47.0459C199.405 47.8733 201.267 48.6976 203.742 48.5435C207.829 48.2879 210.082 46.3578 211.598 46.3101C210.483 45.3833 209.076 45.784 207.562 46.669V46.668Z" fill="#FF41CA"/>
<path style="mix-blend-mode:multiply" d="M207.562 46.6681C207.562 46.6681 206.769 47.032 205.685 47.0897C204.61 47.1474 204.05 46.3896 204.05 46.3896L204.947 46.0107L207.562 46.6681Z" fill="url(#paint31_linear_120_2214)"/>
<path d="M205.171 43.9792C206.841 43.9792 208.195 42.6253 208.195 40.9552C208.195 39.2851 206.841 37.9313 205.171 37.9313C203.501 37.9313 202.147 39.2851 202.147 40.9552C202.147 42.6253 203.501 43.9792 205.171 43.9792Z" fill="black"/>
<path d="M213.179 43.9792C214.849 43.9792 216.203 42.6253 216.203 40.9552C216.203 39.2851 214.849 37.9313 213.179 37.9313C211.509 37.9313 210.155 39.2851 210.155 40.9552C210.155 42.6253 211.509 43.9792 213.179 43.9792Z" fill="black"/>
<path d="M203.095 35.1589C204.543 37.5574 207.074 37.802 209.626 36.1066C211.838 34.6368 214.735 32.8678 216.209 37.2262" stroke="black" stroke-width="0.994395" stroke-miterlimit="10"/>
<path d="M281.196 56.4648C281.196 56.4648 293.075 68.147 296.425 70.5455C296.514 70.6101 296.639 70.5872 296.702 70.4977L301.817 63.2536C301.915 63.1153 301.796 62.9294 301.63 62.9572L298.141 63.5578C298.009 63.5807 297.873 63.5469 297.767 63.4634C296.454 62.4302 287.696 55.5788 285.219 54.65C282.539 53.6457 281.196 56.4628 281.196 56.4628V56.4648Z" fill="#FF78D9"/>
<path style="mix-blend-mode:color-burn" opacity="0.4" d="M299.063 67.1546L296.702 70.4977C296.639 70.5882 296.514 70.6101 296.425 70.5455C294.203 68.9544 288.23 63.2814 284.459 59.6389C287.995 61.8694 293.949 66.5281 295.013 67.3644C295.118 67.4479 295.254 67.4807 295.387 67.4579L298.876 66.8572C299.042 66.8284 299.16 67.0154 299.063 67.1536V67.1546Z" fill="url(#paint32_linear_120_2214)"/>
<path d="M275.127 51.7206C275.127 51.7206 278.193 57.503 274.101 60.862C270.859 63.523 267.609 66.2795 266.369 67.614C266.295 67.6945 266.301 67.8208 266.381 67.8954L272.917 73.8886C273.042 74.003 273.241 73.9095 273.234 73.7405L273.081 70.2034C273.075 70.0691 273.126 69.9389 273.223 69.8444C273.771 69.3045 275.746 67.3544 277.837 65.1787C280.285 62.6331 281.366 58.1374 280.969 56.7264C280.192 53.9719 275.127 51.7196 275.127 51.7196V51.7206Z" fill="#FF78D9"/>
<path style="mix-blend-mode:color-burn" opacity="0.4" d="M277.837 65.1777C275.746 67.3534 273.771 69.3045 273.223 69.8434C273.126 69.9379 273.075 70.0681 273.081 70.2024L273.234 73.7395C273.241 73.9085 273.042 74.002 272.917 73.8876L266.381 67.8944C266.301 67.8198 266.295 67.6935 266.369 67.613C266.491 67.4817 266.634 67.3356 266.793 67.1784L271.938 71.8968C272.062 72.0112 272.263 71.9177 272.255 71.7497L272.102 68.2126C272.097 68.0774 272.148 67.9481 272.243 67.8536C272.792 67.3137 274.768 65.3627 276.859 63.1879C279.106 60.8491 280.201 56.8685 280.058 55.1413C280.484 55.6395 280.813 56.1735 280.969 56.7263C281.366 58.1364 280.285 62.6321 277.837 65.1777Z" fill="url(#paint33_linear_120_2214)"/>
<path d="M281.05 59.8537C288.639 59.8537 294.79 53.7023 294.79 46.1142C294.79 38.526 288.639 32.3746 281.05 32.3746C273.462 32.3746 267.311 38.526 267.311 46.1142C267.311 53.7023 273.462 59.8537 281.05 59.8537Z" fill="#FF78D9"/>
<path style="mix-blend-mode:color-burn" opacity="0.4" d="M293.974 50.7769C291.398 57.9146 283.524 61.6128 276.388 59.0373C269.25 56.4618 265.551 48.5892 268.126 41.4514C270.702 34.3137 278.575 30.6145 285.713 33.19C285.879 33.2497 286.044 33.3123 286.206 33.3789C279.74 31.3305 272.754 34.7423 270.431 41.18C268.051 47.7778 271.47 55.0568 278.069 57.4373C284.507 59.7602 291.592 56.5623 294.144 50.2767C294.091 50.4438 294.034 50.6098 293.974 50.7769Z" fill="url(#paint34_radial_120_2214)"/>
<path style="mix-blend-mode:color-burn" opacity="0.2" d="M286.404 46.3091C285.038 46.9206 282.945 51.2383 282.929 51.7852C282.913 52.3321 278.859 52.1074 278.859 52.1074L277.536 47.5481L282.367 46.9524L284.747 46.0187L286.403 46.3091H286.404Z" fill="url(#paint35_linear_120_2214)"/>
<path d="M279.805 45.1317C282.112 45.1317 283.982 43.2618 283.982 40.9552C283.982 38.6486 282.112 36.7788 279.805 36.7788C277.499 36.7788 275.629 38.6486 275.629 40.9552C275.629 43.2618 277.499 45.1317 279.805 45.1317Z" fill="white"/>
<path d="M287.794 45.1317C290.1 45.1317 291.97 43.2618 291.97 40.9552C291.97 38.6486 290.1 36.7788 287.794 36.7788C285.487 36.7788 283.617 38.6486 283.617 40.9552C283.617 43.2618 285.487 45.1317 287.794 45.1317Z" fill="white"/>
<path d="M282.368 46.668C278.09 45.3395 273.541 45.072 274.013 47.0459C274.211 47.8733 276.073 48.6976 278.548 48.5435C282.635 48.2879 284.889 46.3578 286.404 46.3101C285.289 45.3833 283.882 45.784 282.368 46.669V46.668Z" fill="#FF41CA"/>
<path style="mix-blend-mode:multiply" d="M282.368 46.6681C282.368 46.6681 281.575 47.032 280.492 47.0897C279.417 47.1473 278.857 46.3896 278.857 46.3896L279.936 46.0572L282.368 46.6681Z" fill="url(#paint36_linear_120_2214)"/>
<path d="M279.978 43.9792C281.649 43.9792 283.002 42.6253 283.002 40.9552C283.002 39.2851 281.649 37.9313 279.978 37.9313C278.308 37.9313 276.954 39.2851 276.954 40.9552C276.954 42.6253 278.308 43.9792 279.978 43.9792Z" fill="black"/>
<path d="M287.985 43.9792C289.655 43.9792 291.009 42.6253 291.009 40.9552C291.009 39.2851 289.655 37.9313 287.985 37.9313C286.315 37.9313 284.961 39.2851 284.961 40.9552C284.961 42.6253 286.315 43.9792 287.985 43.9792Z" fill="black"/>
<path d="M277.902 35.1589C279.35 37.5574 281.882 37.802 284.433 36.1066C286.645 34.6368 289.542 32.8678 291.016 37.2262" stroke="black" stroke-width="0.994395" stroke-miterlimit="10"/>
<path d="M242.964 64.4468C250.552 64.4468 256.704 58.2954 256.704 50.7073C256.704 43.1191 250.552 36.9677 242.964 36.9677C235.376 36.9677 229.225 43.1191 229.225 50.7073C229.225 58.2954 235.376 64.4468 242.964 64.4468Z" fill="#FF78D9"/>
<path style="mix-blend-mode:color-burn" opacity="0.4" d="M255.865 55.3511C253.29 62.4889 245.416 66.187 238.279 63.6116C231.142 61.0361 227.442 53.1634 230.018 46.0257C232.593 38.8879 240.467 35.1888 247.605 37.7642C247.771 37.8239 247.936 37.8865 248.098 37.9532C241.631 35.9047 234.646 39.3165 232.323 45.7542C229.942 52.352 233.362 59.631 239.961 62.0116C246.399 64.3345 253.484 61.1365 256.035 54.8509C255.983 55.018 255.926 55.1841 255.865 55.3511Z" fill="url(#paint37_radial_120_2214)"/>
<path style="mix-blend-mode:color-burn" opacity="0.2" d="M248.318 50.9022C246.952 51.5137 244.858 55.8314 244.842 56.3783C244.827 56.9252 240.772 56.7005 240.772 56.7005L239.45 52.1412L244.281 51.5456L246.66 50.6118L248.317 50.9022H248.318Z" fill="url(#paint38_linear_120_2214)"/>
<path d="M244.282 51.2611C240.004 49.9326 235.454 49.6651 235.927 51.639C236.125 52.4663 237.987 53.2907 240.462 53.1366C244.549 52.881 246.803 50.9509 248.318 50.9032C247.203 49.9764 245.796 50.3771 244.282 51.2621V51.2611Z" fill="#FF41CA"/>
<path style="mix-blend-mode:multiply" d="M244.282 51.2611C244.282 51.2611 243.489 51.6251 242.405 51.6828C241.33 51.7404 240.771 50.9827 240.771 50.9827L241.748 50.6197L244.282 51.2611Z" fill="url(#paint39_linear_120_2214)"/>
<path style="mix-blend-mode:color-burn" opacity="0.4" d="M236.718 62.9463C238.155 62.6659 241.645 60.4275 242.186 57.6919C242.728 54.9563 241.891 63.715 241.891 63.715L241.718 64.3911C241.718 64.3911 240.548 64.5353 238.066 63.5439C236.713 63.004 236.717 62.9463 236.717 62.9463H236.718Z" fill="url(#paint40_radial_120_2214)"/>
<path d="M250 56.787C250 56.787 247.309 69.6803 247.282 73.8011C247.282 73.9115 247.37 74 247.481 74H256.349C256.518 74 256.602 73.7961 256.483 73.6768L253.979 71.1729C253.884 71.0775 253.834 70.9472 253.841 70.813C253.927 69.1444 254.906 61.586 254.237 59.0284C253.512 56.26 250.001 56.787 250.001 56.787H250Z" fill="#FF78D9"/>
<path style="mix-blend-mode:color-burn" opacity="0.4" d="M249.128 74H247.481C247.37 74 247.281 73.9115 247.282 73.8011C247.309 69.6803 250 56.787 250 56.787C250 56.787 250.756 56.6736 251.639 56.8288C251.473 57.6312 248.955 69.8166 248.929 73.8011C248.928 73.9115 249.018 74 249.128 74Z" fill="url(#paint41_linear_120_2214)"/>
<path d="M242.372 56.787C242.372 56.787 239.681 69.6803 239.654 73.8011C239.654 73.9115 239.742 74 239.853 74H248.721C248.89 74 248.974 73.7961 248.855 73.6768L246.351 71.1729C246.256 71.0775 246.206 70.9472 246.213 70.813C246.299 69.1444 247.278 61.586 246.609 59.0284C245.884 56.26 242.373 56.787 242.373 56.787H242.372Z" fill="#FF78D9"/>
<path style="mix-blend-mode:color-burn" opacity="0.4" d="M241.5 74H239.853C239.742 74 239.653 73.9115 239.654 73.8011C239.681 69.6803 242.372 56.787 242.372 56.787C242.372 56.787 243.128 56.6736 244.011 56.8288C243.845 57.6312 241.327 69.8166 241.301 73.8011C241.3 73.9115 241.39 74 241.5 74Z" fill="url(#paint42_linear_120_2214)"/>
<path d="M241.766 42.0998L241.096 41.5887C241.239 41.5718 241.385 41.5628 241.533 41.5618C242.513 42.2877 243.539 42.6686 244.543 42.8157C244.615 42.8883 244.684 42.9639 244.749 43.0425L243.769 43.0057L241.766 42.0998Z" fill="white"/>
<path d="M247.424 42.9569L246.41 43.0206C246.469 42.951 246.531 42.8834 246.596 42.8177C247.972 42.6318 249.202 42.1087 250.071 41.5916C250.19 41.6056 250.309 41.6255 250.425 41.6493L250.191 41.7517L247.424 42.9569Z" fill="white"/>
<path d="M253.741 45.7283C253.741 48.0294 251.876 49.8948 249.575 49.8948C247.674 49.8948 246.071 48.621 245.57 46.8808C245.07 48.621 243.468 49.8948 241.567 49.8948C239.266 49.8948 237.4 48.0294 237.4 45.7283C237.4 43.4273 239.248 41.5797 241.533 41.5618C242.513 42.2877 243.539 42.6686 244.543 42.8157C245.021 43.302 245.377 43.9046 245.57 44.5768C245.763 43.9056 246.119 43.304 246.596 42.8177C247.972 42.6318 249.202 42.1087 250.071 41.5916C252.138 41.8363 253.741 43.5954 253.741 45.7283Z" fill="white"/>
<path d="M241.766 48.6528C243.436 48.6528 244.79 47.299 244.79 45.6289C244.79 43.9588 243.436 42.6049 241.766 42.6049C240.096 42.6049 238.742 43.9588 238.742 45.6289C238.742 47.299 240.096 48.6528 241.766 48.6528Z" fill="black"/>
<path d="M249.774 48.6528C251.444 48.6528 252.798 47.299 252.798 45.6289C252.798 43.9588 251.444 42.6049 249.774 42.6049C248.104 42.6049 246.75 43.9588 246.75 45.6289C246.75 47.299 248.104 48.6528 249.774 48.6528Z" fill="black"/>
<path d="M252.648 40.1428C252.49 40.3825 252.299 40.6281 252.077 40.8707C250.826 42.245 248.609 43.5695 245.998 43.7266C245.84 43.7356 245.675 43.7415 245.506 43.7415C243.791 43.7415 241.516 43.2006 239.452 40.9592C239.346 40.8449 239.242 40.7265 239.138 40.6032L239.974 39.8982C242.028 42.3315 244.347 42.7292 245.932 42.6348C248.51 42.4796 250.802 40.9612 251.734 39.5422L252.648 40.1428Z" fill="black"/>
<path style="mix-blend-mode:multiply" d="M252.019 42.3543C251.533 42.768 250.886 43.2225 250.026 43.7077C246.259 45.8367 241.391 43.8658 239.572 42.0699C240.155 41.7507 240.823 41.5678 241.533 41.5618C242.513 42.2877 243.539 42.6686 244.543 42.8157C245.02 43.302 245.377 43.9046 245.57 44.5768C245.763 43.9056 246.119 43.304 246.596 42.8177C247.972 42.6318 249.202 42.1087 250.071 41.5916C250.794 41.6772 251.459 41.9476 252.019 42.3543Z" fill="url(#paint43_radial_120_2214)"/>
</g>
<path d="M322.536 53.238C322.536 53.238 319.844 69.6803 319.817 73.8001C319.817 73.9105 319.906 73.999 320.016 73.999H328.884C329.053 73.999 329.137 73.7951 329.018 73.6758L326.514 71.1719C326.419 71.0765 326.369 70.9462 326.376 70.8119C326.463 69.1434 327.008 58.037 326.338 55.4784C325.613 52.71 322.537 53.237 322.537 53.237L322.536 53.238Z" fill="#FF78D9"/>
<path style="mix-blend-mode:color-burn" opacity="0.4" d="M324.109 74H320.016C319.906 74 319.816 73.9115 319.817 73.8011C319.835 71.0685 321.024 62.9164 321.825 57.7356C322.042 61.9111 321.671 69.4606 321.601 70.8129C321.594 70.9472 321.645 71.0774 321.74 71.1729L324.243 73.6768C324.362 73.7961 324.278 74 324.109 74Z" fill="url(#paint44_linear_120_2214)"/>
<path d="M315.461 53.238C315.461 53.238 312.769 69.6803 312.742 73.8001C312.742 73.9105 312.83 73.999 312.941 73.999H321.809C321.978 73.999 322.062 73.7951 321.943 73.6758L319.439 71.1719C319.344 71.0765 319.294 70.9462 319.301 70.8119C319.387 69.1434 319.933 58.037 319.263 55.4784C318.538 52.71 315.462 53.237 315.462 53.237L315.461 53.238Z" fill="#FF78D9"/>
<path style="mix-blend-mode:color-burn" opacity="0.4" d="M314.852 74H312.941C312.83 74 312.741 73.9115 312.742 73.8011C312.769 69.6803 315.461 53.239 315.461 53.239C315.461 53.239 316.389 53.0799 317.346 53.3951C317.071 55.0806 314.678 69.916 314.652 73.8011C314.652 73.9115 314.742 74 314.852 74Z" fill="url(#paint45_linear_120_2214)"/>
<path d="M320.744 57.4821C328.332 57.4821 334.483 51.3307 334.483 43.7425C334.483 36.1544 328.332 30.003 320.744 30.003C313.156 30.003 307.004 36.1544 307.004 43.7425C307.004 51.3307 313.156 57.4821 320.744 57.4821Z" fill="#FF78D9"/>
<path style="mix-blend-mode:color-burn" opacity="0.4" d="M333.667 48.4054C331.092 55.5432 323.218 59.2413 316.081 56.6658C308.943 54.0914 305.244 46.2187 307.82 39.081C310.394 31.9432 318.269 28.244 325.407 30.8195C325.573 30.8792 325.738 30.9418 325.9 31.0085C319.433 28.959 312.448 32.3718 310.125 38.8085C307.744 45.4063 311.164 52.6853 317.763 55.0659C324.2 57.3888 331.285 54.1908 333.837 47.9052C333.784 48.0723 333.728 48.2383 333.667 48.4054Z" fill="url(#paint46_radial_120_2214)"/>
<path style="mix-blend-mode:color-burn" opacity="0.2" d="M326.098 43.9374C324.731 44.549 322.638 48.8666 322.622 49.4135C322.606 49.9605 318.552 49.7357 318.552 49.7357L317.23 45.1764L322.06 44.5808L324.44 43.647L326.097 43.9374H326.098Z" fill="url(#paint47_linear_120_2214)"/>
<path d="M319.498 42.7601C321.804 42.7601 323.674 40.8902 323.674 38.5836C323.674 36.277 321.804 34.4071 319.498 34.4071C317.191 34.4071 315.321 36.277 315.321 38.5836C315.321 40.8902 317.191 42.7601 319.498 42.7601Z" fill="white"/>
<path d="M327.486 42.7601C329.792 42.7601 331.662 40.8902 331.662 38.5836C331.662 36.277 329.792 34.4071 327.486 34.4071C325.179 34.4071 323.309 36.277 323.309 38.5836C323.309 40.8902 325.179 42.7601 327.486 42.7601Z" fill="white"/>
<path d="M322.06 44.2964C317.782 42.9679 313.233 42.7004 313.705 44.6743C313.903 45.5016 315.766 46.326 318.241 46.1718C322.328 45.9163 324.581 43.9862 326.097 43.9384C324.982 43.0117 323.575 43.4124 322.06 44.2974V44.2964Z" fill="#FF41CA"/>
<path style="mix-blend-mode:multiply" d="M322.06 44.2964C322.06 44.2964 321.268 44.6604 320.184 44.7181C319.109 44.7757 318.549 44.018 318.549 44.018L319.815 43.7524L322.06 44.2964Z" fill="url(#paint48_linear_120_2214)"/>
<path d="M319.671 41.6075C321.341 41.6075 322.695 40.2537 322.695 38.5836C322.695 36.9135 321.341 35.5596 319.671 35.5596C318.001 35.5596 316.647 36.9135 316.647 38.5836C316.647 40.2537 318.001 41.6075 319.671 41.6075Z" fill="black"/>
<path d="M327.679 41.6075C329.349 41.6075 330.703 40.2537 330.703 38.5836C330.703 36.9135 329.349 35.5596 327.679 35.5596C326.009 35.5596 324.655 36.9135 324.655 38.5836C324.655 40.2537 326.009 41.6075 327.679 41.6075Z" fill="black"/>
<path d="M318.55 34.4071C321.995 31.8217 327.851 31.6507 331.353 34.5374" stroke="black" stroke-width="0.994395" stroke-miterlimit="10"/>
<defs>
<linearGradient id="paint0_linear_120_2214" x1="20.7489" y1="66.1413" x2="26.4348" y2="65.7723" gradientUnits="userSpaceOnUse">
<stop/>
<stop offset="0.1" stop-color="#232323"/>
<stop offset="0.32" stop-color="#7D7D7D"/>
<stop offset="0.61" stop-color="white"/>
</linearGradient>
<linearGradient id="paint1_linear_120_2214" x1="14.7089" y1="63.4405" x2="19.0753" y2="63.8094" gradientUnits="userSpaceOnUse">
<stop/>
<stop offset="0.61" stop-color="white"/>
</linearGradient>
<radialGradient id="paint2_radial_120_2214" cx="0" cy="0" r="1" gradientUnits="userSpaceOnUse" gradientTransform="translate(22.7038 43.8472) rotate(19.84) scale(13.7396)">
<stop offset="0.7" stop-color="white"/>
<stop offset="0.81" stop-color="#FDFDFD"/>
<stop offset="0.85" stop-color="#F6F6F6"/>
<stop offset="0.88" stop-color="#EAEAEA"/>
<stop offset="0.9" stop-color="#D9D9D9"/>
<stop offset="0.92" stop-color="#C3C3C3"/>
<stop offset="0.94" stop-color="#A8A8A8"/>
<stop offset="0.96" stop-color="#878787"/>
<stop offset="0.97" stop-color="#626262"/>
<stop offset="0.99" stop-color="#373737"/>
<stop offset="1"/>
</radialGradient>
<linearGradient id="paint3_linear_120_2214" x1="20.2278" y1="49.0804" x2="26.4248" y2="42.6447" gradientUnits="userSpaceOnUse">
<stop stop-color="white"/>
<stop offset="0.12" stop-color="#FAFAFA"/>
<stop offset="0.25" stop-color="#EEEEEE"/>
<stop offset="0.37" stop-color="#DADADA"/>
<stop offset="0.5" stop-color="#BDBDBD"/>
<stop offset="0.63" stop-color="#989898"/>
<stop offset="0.76" stop-color="#6B6B6B"/>
<stop offset="0.88" stop-color="#363636"/>
<stop offset="1"/>
</linearGradient>
<linearGradient id="paint4_linear_120_2214" x1="22.1449" y1="44.1791" x2="25.5328" y2="42.4548" gradientUnits="userSpaceOnUse">
<stop stop-color="white"/>
<stop offset="1"/>
</linearGradient>
<linearGradient id="paint5_linear_120_2214" x1="65.7457" y1="67.0043" x2="68.7244" y2="62.1469" gradientUnits="userSpaceOnUse">
<stop/>
<stop offset="0.1" stop-color="#232323"/>
<stop offset="0.32" stop-color="#7D7D7D"/>
<stop offset="0.61" stop-color="white"/>
</linearGradient>
<linearGradient id="paint6_linear_120_2214" x1="59.2328" y1="68.9932" x2="51.8315" y2="63.9357" gradientUnits="userSpaceOnUse">
<stop/>
<stop offset="0.13" stop-color="#030303"/>
<stop offset="0.25" stop-color="#0F0F0F"/>
<stop offset="0.38" stop-color="#232323"/>
<stop offset="0.5" stop-color="#3F3F3F"/>
<stop offset="0.63" stop-color="#646464"/>
<stop offset="0.75" stop-color="#909090"/>
<stop offset="0.88" stop-color="#C3C3C3"/>
<stop offset="1" stop-color="white"/>
</linearGradient>
<radialGradient id="paint7_radial_120_2214" cx="0" cy="0" r="1" gradientUnits="userSpaceOnUse" gradientTransform="translate(57.21 46.222) rotate(19.84) scale(13.7396)">
<stop offset="0.7" stop-color="white"/>
<stop offset="0.81" stop-color="#FDFDFD"/>
<stop offset="0.85" stop-color="#F6F6F6"/>
<stop offset="0.88" stop-color="#EAEAEA"/>
<stop offset="0.9" stop-color="#D9D9D9"/>
<stop offset="0.92" stop-color="#C3C3C3"/>
<stop offset="0.94" stop-color="#A8A8A8"/>
<stop offset="0.96" stop-color="#878787"/>
<stop offset="0.97" stop-color="#626262"/>
<stop offset="0.99" stop-color="#373737"/>
<stop offset="1"/>
</radialGradient>
<linearGradient id="paint8_linear_120_2214" x1="54.7292" y1="51.4521" x2="60.9253" y2="45.0163" gradientUnits="userSpaceOnUse">
<stop stop-color="white"/>
<stop offset="0.12" stop-color="#FAFAFA"/>
<stop offset="0.25" stop-color="#EEEEEE"/>
<stop offset="0.37" stop-color="#DADADA"/>
<stop offset="0.5" stop-color="#BDBDBD"/>
<stop offset="0.63" stop-color="#989898"/>
<stop offset="0.76" stop-color="#6B6B6B"/>
<stop offset="0.88" stop-color="#363636"/>
<stop offset="1"/>
</linearGradient>
<linearGradient id="paint9_linear_120_2214" x1="56.6464" y1="46.551" x2="60.0343" y2="44.8267" gradientUnits="userSpaceOnUse">
<stop stop-color="white"/>
<stop offset="1"/>
</linearGradient>
<linearGradient id="paint10_linear_120_2214" x1="140.552" y1="67.0104" x2="143.531" y2="62.153" gradientUnits="userSpaceOnUse">
<stop/>
<stop offset="0.1" stop-color="#232323"/>
<stop offset="0.32" stop-color="#7D7D7D"/>
<stop offset="0.61" stop-color="white"/>
</linearGradient>
<linearGradient id="paint11_linear_120_2214" x1="134.039" y1="30" x2="126.638" y2="63.9357" gradientUnits="userSpaceOnUse">
<stop/>
<stop offset="0.13" stop-color="#030303"/>
<stop offset="0.25" stop-color="#0F0F0F"/>
<stop offset="0.38" stop-color="#232323"/>
<stop offset="0.5" stop-color="#3F3F3F"/>
<stop offset="0.63" stop-color="#646464"/>
<stop offset="0.75" stop-color="#909090"/>
<stop offset="0.88" stop-color="#C3C3C3"/>
<stop offset="1" stop-color="white"/>
</linearGradient>
<radialGradient id="paint12_radial_120_2214" cx="0" cy="0" r="1" gradientUnits="userSpaceOnUse" gradientTransform="translate(132.011 46.222) rotate(19.84) scale(13.7396)">
<stop offset="0.7" stop-color="white"/>
<stop offset="0.81" stop-color="#FDFDFD"/>
<stop offset="0.85" stop-color="#F6F6F6"/>
<stop offset="0.88" stop-color="#EAEAEA"/>
<stop offset="0.9" stop-color="#D9D9D9"/>
<stop offset="0.92" stop-color="#C3C3C3"/>
<stop offset="0.94" stop-color="#A8A8A8"/>
<stop offset="0.96" stop-color="#878787"/>
<stop offset="0.97" stop-color="#626262"/>
<stop offset="0.99" stop-color="#373737"/>
<stop offset="1"/>
</radialGradient>
<linearGradient id="paint13_linear_120_2214" x1="129.536" y1="51.4521" x2="135.732" y2="45.0163" gradientUnits="userSpaceOnUse">
<stop stop-color="white"/>
<stop offset="0.12" stop-color="#FAFAFA"/>
<stop offset="0.25" stop-color="#EEEEEE"/>
<stop offset="0.37" stop-color="#DADADA"/>
<stop offset="0.5" stop-color="#BDBDBD"/>
<stop offset="0.63" stop-color="#989898"/>
<stop offset="0.76" stop-color="#6B6B6B"/>
<stop offset="0.88" stop-color="#363636"/>
<stop offset="1"/>
</linearGradient>
<linearGradient id="paint14_linear_120_2214" x1="131.453" y1="46.5508" x2="134.841" y2="44.8265" gradientUnits="userSpaceOnUse">
<stop stop-color="white"/>
<stop offset="1"/>
</linearGradient>
<radialGradient id="paint15_radial_120_2214" cx="0" cy="0" r="1" gradientUnits="userSpaceOnUse" gradientTransform="translate(93.9032 50.7962) rotate(19.84) scale(13.7396)">
<stop offset="0.7" stop-color="white"/>
<stop offset="0.81" stop-color="#FDFDFD"/>
<stop offset="0.85" stop-color="#F6F6F6"/>
<stop offset="0.88" stop-color="#EAEAEA"/>
<stop offset="0.9" stop-color="#D9D9D9"/>
<stop offset="0.92" stop-color="#C3C3C3"/>
<stop offset="0.94" stop-color="#A8A8A8"/>
<stop offset="0.96" stop-color="#878787"/>
<stop offset="0.97" stop-color="#626262"/>
<stop offset="0.99" stop-color="#373737"/>
<stop offset="1"/>
</radialGradient>
<linearGradient id="paint16_linear_120_2214" x1="91.4493" y1="56.0452" x2="97.6454" y2="49.6095" gradientUnits="userSpaceOnUse">
<stop stop-color="white"/>
<stop offset="0.12" stop-color="#FAFAFA"/>
<stop offset="0.25" stop-color="#EEEEEE"/>
<stop offset="0.37" stop-color="#DADADA"/>
<stop offset="0.5" stop-color="#BDBDBD"/>
<stop offset="0.63" stop-color="#989898"/>
<stop offset="0.76" stop-color="#6B6B6B"/>
<stop offset="0.88" stop-color="#363636"/>
<stop offset="1"/>
</linearGradient>
<linearGradient id="paint17_linear_120_2214" x1="93.3665" y1="51.1437" x2="96.7544" y2="49.4194" gradientUnits="userSpaceOnUse">
<stop stop-color="white"/>
<stop offset="1"/>
</linearGradient>
<radialGradient id="paint18_radial_120_2214" cx="0" cy="0" r="1" gradientUnits="userSpaceOnUse" gradientTransform="translate(91.8148 61.1731) rotate(146.23) scale(4.66272 2.5645)">
<stop offset="0.22" stop-color="white"/>
<stop offset="0.29" stop-color="#F2F2F2"/>
<stop offset="0.42" stop-color="#D2D2D2"/>
<stop offset="0.58" stop-color="#9E9E9E"/>
<stop offset="0.78" stop-color="#565656"/>
<stop offset="1"/>
</radialGradient>
<linearGradient id="paint19_linear_120_2214" x1="98.6885" y1="65.1767" x2="101.934" y2="65.5834" gradientUnits="userSpaceOnUse">
<stop/>
<stop offset="0.13" stop-color="#2C2C2C"/>
<stop offset="0.41" stop-color="#858585"/>
<stop offset="0.63" stop-color="#C7C7C7"/>
<stop offset="0.79" stop-color="#EFEFEF"/>
<stop offset="0.87" stop-color="white"/>
</linearGradient>
<linearGradient id="paint20_linear_120_2214" x1="91.0605" y1="65.1767" x2="94.3062" y2="65.5834" gradientUnits="userSpaceOnUse">
<stop/>
<stop offset="0.13" stop-color="#2C2C2C"/>
<stop offset="0.41" stop-color="#858585"/>
<stop offset="0.63" stop-color="#C7C7C7"/>
<stop offset="0.79" stop-color="#EFEFEF"/>
<stop offset="0.87" stop-color="white"/>
</linearGradient>
<radialGradient id="paint21_radial_120_2214" cx="0" cy="0" r="1" gradientUnits="userSpaceOnUse" gradientTransform="translate(96.3037 39.5606) rotate(10.69) scale(7.66579 2.98966)">
<stop/>
<stop offset="0.65" stop-color="white"/>
</radialGradient>
<linearGradient id="paint22_linear_120_2214" x1="169.749" y1="66.1413" x2="175.435" y2="65.7723" gradientUnits="userSpaceOnUse">
<stop/>
<stop offset="0.1" stop-color="#232323"/>
<stop offset="0.32" stop-color="#7D7D7D"/>
<stop offset="0.61" stop-color="white"/>
</linearGradient>
<linearGradient id="paint23_linear_120_2214" x1="163.709" y1="63.4405" x2="168.075" y2="63.8094" gradientUnits="userSpaceOnUse">
<stop/>
<stop offset="0.61" stop-color="white"/>
</linearGradient>
<radialGradient id="paint24_radial_120_2214" cx="0" cy="0" r="1" gradientUnits="userSpaceOnUse" gradientTransform="translate(171.704 43.8472) rotate(19.84) scale(13.7396)">
<stop offset="0.7" stop-color="white"/>
<stop offset="0.81" stop-color="#FDFDFD"/>
<stop offset="0.85" stop-color="#F6F6F6"/>
<stop offset="0.88" stop-color="#EAEAEA"/>
<stop offset="0.9" stop-color="#D9D9D9"/>
<stop offset="0.92" stop-color="#C3C3C3"/>
<stop offset="0.94" stop-color="#A8A8A8"/>
<stop offset="0.96" stop-color="#878787"/>
<stop offset="0.97" stop-color="#626262"/>
<stop offset="0.99" stop-color="#373737"/>
<stop offset="1"/>
</radialGradient>
<linearGradient id="paint25_linear_120_2214" x1="169.228" y1="49.0804" x2="175.425" y2="42.6447" gradientUnits="userSpaceOnUse">
<stop stop-color="white"/>
<stop offset="0.12" stop-color="#FAFAFA"/>
<stop offset="0.25" stop-color="#EEEEEE"/>
<stop offset="0.37" stop-color="#DADADA"/>
<stop offset="0.5" stop-color="#BDBDBD"/>
<stop offset="0.63" stop-color="#989898"/>
<stop offset="0.76" stop-color="#6B6B6B"/>
<stop offset="0.88" stop-color="#363636"/>
<stop offset="1"/>
</linearGradient>
<linearGradient id="paint26_linear_120_2214" x1="171.145" y1="44.1791" x2="174.533" y2="42.4549" gradientUnits="userSpaceOnUse">
<stop stop-color="white"/>
<stop offset="1"/>
</linearGradient>
<linearGradient id="paint27_linear_120_2214" x1="214.746" y1="67.0043" x2="217.724" y2="62.1469" gradientUnits="userSpaceOnUse">
<stop/>
<stop offset="0.1" stop-color="#232323"/>
<stop offset="0.32" stop-color="#7D7D7D"/>
<stop offset="0.61" stop-color="white"/>
</linearGradient>
<linearGradient id="paint28_linear_120_2214" x1="208.233" y1="68.9932" x2="200.832" y2="63.9357" gradientUnits="userSpaceOnUse">
<stop/>
<stop offset="0.13" stop-color="#030303"/>
<stop offset="0.25" stop-color="#0F0F0F"/>
<stop offset="0.38" stop-color="#232323"/>
<stop offset="0.5" stop-color="#3F3F3F"/>
<stop offset="0.63" stop-color="#646464"/>
<stop offset="0.75" stop-color="#909090"/>
<stop offset="0.88" stop-color="#C3C3C3"/>
<stop offset="1" stop-color="white"/>
</linearGradient>
<radialGradient id="paint29_radial_120_2214" cx="0" cy="0" r="1" gradientUnits="userSpaceOnUse" gradientTransform="translate(206.21 46.222) rotate(19.84) scale(13.7396)">
<stop offset="0.7" stop-color="white"/>
<stop offset="0.81" stop-color="#FDFDFD"/>
<stop offset="0.85" stop-color="#F6F6F6"/>
<stop offset="0.88" stop-color="#EAEAEA"/>
<stop offset="0.9" stop-color="#D9D9D9"/>
<stop offset="0.92" stop-color="#C3C3C3"/>
<stop offset="0.94" stop-color="#A8A8A8"/>
<stop offset="0.96" stop-color="#878787"/>
<stop offset="0.97" stop-color="#626262"/>
<stop offset="0.99" stop-color="#373737"/>
<stop offset="1"/>
</radialGradient>
<linearGradient id="paint30_linear_120_2214" x1="203.729" y1="51.4521" x2="209.925" y2="45.0163" gradientUnits="userSpaceOnUse">
<stop stop-color="white"/>
<stop offset="0.12" stop-color="#FAFAFA"/>
<stop offset="0.25" stop-color="#EEEEEE"/>
<stop offset="0.37" stop-color="#DADADA"/>
<stop offset="0.5" stop-color="#BDBDBD"/>
<stop offset="0.63" stop-color="#989898"/>
<stop offset="0.76" stop-color="#6B6B6B"/>
<stop offset="0.88" stop-color="#363636"/>
<stop offset="1"/>
</linearGradient>
<linearGradient id="paint31_linear_120_2214" x1="205.646" y1="46.5506" x2="209.034" y2="44.8263" gradientUnits="userSpaceOnUse">
<stop stop-color="white"/>
<stop offset="1"/>
</linearGradient>
<linearGradient id="paint32_linear_120_2214" x1="289.552" y1="67.0104" x2="292.531" y2="62.153" gradientUnits="userSpaceOnUse">
<stop/>
<stop offset="0.1" stop-color="#232323"/>
<stop offset="0.32" stop-color="#7D7D7D"/>
<stop offset="0.61" stop-color="white"/>
</linearGradient>
<linearGradient id="paint33_linear_120_2214" x1="283.039" y1="30" x2="275.638" y2="63.9357" gradientUnits="userSpaceOnUse">
<stop/>
<stop offset="0.13" stop-color="#030303"/>
<stop offset="0.25" stop-color="#0F0F0F"/>
<stop offset="0.38" stop-color="#232323"/>
<stop offset="0.5" stop-color="#3F3F3F"/>
<stop offset="0.63" stop-color="#646464"/>
<stop offset="0.75" stop-color="#909090"/>
<stop offset="0.88" stop-color="#C3C3C3"/>
<stop offset="1" stop-color="white"/>
</linearGradient>
<radialGradient id="paint34_radial_120_2214" cx="0" cy="0" r="1" gradientUnits="userSpaceOnUse" gradientTransform="translate(281.011 46.222) rotate(19.84) scale(13.7396)">
<stop offset="0.7" stop-color="white"/>
<stop offset="0.81" stop-color="#FDFDFD"/>
<stop offset="0.85" stop-color="#F6F6F6"/>
<stop offset="0.88" stop-color="#EAEAEA"/>
<stop offset="0.9" stop-color="#D9D9D9"/>
<stop offset="0.92" stop-color="#C3C3C3"/>
<stop offset="0.94" stop-color="#A8A8A8"/>
<stop offset="0.96" stop-color="#878787"/>
<stop offset="0.97" stop-color="#626262"/>
<stop offset="0.99" stop-color="#373737"/>
<stop offset="1"/>
</radialGradient>
<linearGradient id="paint35_linear_120_2214" x1="278.536" y1="51.4521" x2="284.732" y2="45.0163" gradientUnits="userSpaceOnUse">
<stop stop-color="white"/>
<stop offset="0.12" stop-color="#FAFAFA"/>
<stop offset="0.25" stop-color="#EEEEEE"/>
<stop offset="0.37" stop-color="#DADADA"/>
<stop offset="0.5" stop-color="#BDBDBD"/>
<stop offset="0.63" stop-color="#989898"/>
<stop offset="0.76" stop-color="#6B6B6B"/>
<stop offset="0.88" stop-color="#363636"/>
<stop offset="1"/>
</linearGradient>
<linearGradient id="paint36_linear_120_2214" x1="280.453" y1="46.5507" x2="283.841" y2="44.8265" gradientUnits="userSpaceOnUse">
<stop stop-color="white"/>
<stop offset="1"/>
</linearGradient>
<radialGradient id="paint37_radial_120_2214" cx="0" cy="0" r="1" gradientUnits="userSpaceOnUse" gradientTransform="translate(242.903 50.7962) rotate(19.84) scale(13.7396)">
<stop offset="0.7" stop-color="white"/>
<stop offset="0.81" stop-color="#FDFDFD"/>
<stop offset="0.85" stop-color="#F6F6F6"/>
<stop offset="0.88" stop-color="#EAEAEA"/>
<stop offset="0.9" stop-color="#D9D9D9"/>
<stop offset="0.92" stop-color="#C3C3C3"/>
<stop offset="0.94" stop-color="#A8A8A8"/>
<stop offset="0.96" stop-color="#878787"/>
<stop offset="0.97" stop-color="#626262"/>
<stop offset="0.99" stop-color="#373737"/>
<stop offset="1"/>
</radialGradient>
<linearGradient id="paint38_linear_120_2214" x1="240.449" y1="56.0452" x2="246.645" y2="49.6095" gradientUnits="userSpaceOnUse">
<stop stop-color="white"/>
<stop offset="0.12" stop-color="#FAFAFA"/>
<stop offset="0.25" stop-color="#EEEEEE"/>
<stop offset="0.37" stop-color="#DADADA"/>
<stop offset="0.5" stop-color="#BDBDBD"/>
<stop offset="0.63" stop-color="#989898"/>
<stop offset="0.76" stop-color="#6B6B6B"/>
<stop offset="0.88" stop-color="#363636"/>
<stop offset="1"/>
</linearGradient>
<linearGradient id="paint39_linear_120_2214" x1="242.367" y1="51.1438" x2="245.754" y2="49.4195" gradientUnits="userSpaceOnUse">
<stop stop-color="white"/>
<stop offset="1"/>
</linearGradient>
<radialGradient id="paint40_radial_120_2214" cx="0" cy="0" r="1" gradientUnits="userSpaceOnUse" gradientTransform="translate(240.815 61.1731) rotate(146.23) scale(4.66272 2.5645)">
<stop offset="0.22" stop-color="white"/>
<stop offset="0.29" stop-color="#F2F2F2"/>
<stop offset="0.42" stop-color="#D2D2D2"/>
<stop offset="0.58" stop-color="#9E9E9E"/>
<stop offset="0.78" stop-color="#565656"/>
<stop offset="1"/>
</radialGradient>
<linearGradient id="paint41_linear_120_2214" x1="247.688" y1="65.1767" x2="250.934" y2="65.5834" gradientUnits="userSpaceOnUse">
<stop/>
<stop offset="0.13" stop-color="#2C2C2C"/>
<stop offset="0.41" stop-color="#858585"/>
<stop offset="0.63" stop-color="#C7C7C7"/>
<stop offset="0.79" stop-color="#EFEFEF"/>
<stop offset="0.87" stop-color="white"/>
</linearGradient>
<linearGradient id="paint42_linear_120_2214" x1="240.06" y1="65.1767" x2="243.306" y2="65.5834" gradientUnits="userSpaceOnUse">
<stop/>
<stop offset="0.13" stop-color="#2C2C2C"/>
<stop offset="0.41" stop-color="#858585"/>
<stop offset="0.63" stop-color="#C7C7C7"/>
<stop offset="0.79" stop-color="#EFEFEF"/>
<stop offset="0.87" stop-color="white"/>
</linearGradient>
<radialGradient id="paint43_radial_120_2214" cx="0" cy="0" r="1" gradientUnits="userSpaceOnUse" gradientTransform="translate(245.304 39.5606) rotate(10.69) scale(7.66579 2.98966)">
<stop/>
<stop offset="0.65" stop-color="white"/>
</radialGradient>
<linearGradient id="paint44_linear_120_2214" x1="318.749" y1="66.1413" x2="324.435" y2="65.7723" gradientUnits="userSpaceOnUse">
<stop/>
<stop offset="0.1" stop-color="#232323"/>
<stop offset="0.32" stop-color="#7D7D7D"/>
<stop offset="0.61" stop-color="white"/>
</linearGradient>
<linearGradient id="paint45_linear_120_2214" x1="312.709" y1="63.4405" x2="317.075" y2="63.8094" gradientUnits="userSpaceOnUse">
<stop/>
<stop offset="0.61" stop-color="white"/>
</linearGradient>
<radialGradient id="paint46_radial_120_2214" cx="0" cy="0" r="1" gradientUnits="userSpaceOnUse" gradientTransform="translate(320.704 43.8472) rotate(19.84) scale(13.7396)">
<stop offset="0.7" stop-color="white"/>
<stop offset="0.81" stop-color="#FDFDFD"/>
<stop offset="0.85" stop-color="#F6F6F6"/>
<stop offset="0.88" stop-color="#EAEAEA"/>
<stop offset="0.9" stop-color="#D9D9D9"/>
<stop offset="0.92" stop-color="#C3C3C3"/>
<stop offset="0.94" stop-color="#A8A8A8"/>
<stop offset="0.96" stop-color="#878787"/>
<stop offset="0.97" stop-color="#626262"/>
<stop offset="0.99" stop-color="#373737"/>
<stop offset="1"/>
</radialGradient>
<linearGradient id="paint47_linear_120_2214" x1="318.228" y1="49.0804" x2="324.425" y2="42.6447" gradientUnits="userSpaceOnUse">
<stop stop-color="white"/>
<stop offset="0.12" stop-color="#FAFAFA"/>
<stop offset="0.25" stop-color="#EEEEEE"/>
<stop offset="0.37" stop-color="#DADADA"/>
<stop offset="0.5" stop-color="#BDBDBD"/>
<stop offset="0.63" stop-color="#989898"/>
<stop offset="0.76" stop-color="#6B6B6B"/>
<stop offset="0.88" stop-color="#363636"/>
<stop offset="1"/>
</linearGradient>
<linearGradient id="paint48_linear_120_2214" x1="320.145" y1="44.1791" x2="323.533" y2="42.4548" gradientUnits="userSpaceOnUse">
<stop stop-color="white"/>
<stop offset="1"/>
</linearGradient>
<clipPath id="clip0_120_2214">
<rect width="144" height="44" fill="white" transform="translate(9 30)"/>
</clipPath>
<clipPath id="clip1_120_2214">
<rect width="144" height="44" fill="white" transform="translate(158 30)"/>
</clipPath>
</defs>
</svg>
